# xmcd
#
# Track frame offsets:
#	150
#	11786
#	35803
#	48643
#	59041
#	73854
#	85217
#	101063
#	115543
#	129792
#
# Disc length: 1889 seconds
#
# Revision: 0
# Processed by: cddbd v1.5.2PL0 Copyright (c) Steve Scherf et al.
# Submitted via: EasyCDDAExtractor 15.3.0.1
#
DISCID=8d075f0a
DTITLE=Kitty Wells - Forever Young
DYEAR=1900
DGENRE=
TTITLE0=Too Much Love Between Us
TTITLE1=Forever Young
TTITLE2=Too Stubborn
TTITLE3=I've Been Loving You Too Long
TTITLE4=What About You
TTITLE5=My Love Never Changes
TTITLE6=Don't Stop The Honeymoon In My Heart
TTITLE7=Loving's Over
TTITLE8=Do Right Woman Do Right Man
TTITLE9=Till I Can Make It On My Own
EXTD=
EXTT0=
EXTT1=
EXTT2=
EXTT3=
EXTT4=
EXTT5=
EXTT6=
EXTT7=
EXTT8=
EXTT9=
PLAYORDER=
